<svg width="1000" height="1000" viewBox="0 0 1000 1000" fill="none" xmlns="http://www.w3.org/2000/svg">
<g clip-path="url(#clip0_101_307)">
<rect width="1000" height="1000" fill="#5D6EFF"/>
<rect width="1000" height="1000" fill="#5D6EFF"/>
<path d="M500.5 210L476.53 233.97C468.775 241.725 289 423.615 289 578.01C289 694.335 384.175 789.51 500.5 789.51C616.825 789.51 712 694.335 712 578.01C712 424.32 532.225 241.725 524.47 233.97L500.5 210ZM394.75 542.76C414.49 542.76 430 558.27 430 578.01C430 616.785 461.725 648.51 500.5 648.51C520.24 648.51 535.75 664.02 535.75 683.76C535.75 703.5 520.24 719.01 500.5 719.01C422.95 719.01 359.5 655.56 359.5 578.01C359.5 558.27 375.01 542.76 394.75 542.76Z" fill="white"/>
</g>
<defs>
<clipPath id="clip0_101_307">
<rect width="1000" height="1000" fill="white"/>
</clipPath>
</defs>
</svg>
