<svg width="99" height="103" viewBox="0 0 99 103" fill="none" xmlns="http://www.w3.org/2000/svg">
<circle cx="49" cy="24" r="24" fill="#5E6EFF"/>
<path fill-rule="evenodd" clip-rule="evenodd" d="M48.9998 12C47.4092 12 46.1198 13.2894 46.1198 14.88V21.12H39.88C38.2894 21.12 37 22.4094 37 24C37 25.5906 38.2894 26.88 39.88 26.88H46.1198V33.12C46.1198 34.7106 47.4092 36 48.9998 36C50.5904 36 51.8798 34.7106 51.8798 33.12V26.88H58.12C59.7106 26.88 61 25.5906 61 24C61 22.4094 59.7106 21.12 58.12 21.12H51.8798V14.88C51.8798 13.2894 50.5904 12 48.9998 12Z" fill="#F8F8F8"/>
<g filter="url(#filter0_d_123_334)">
<path d="M41.8164 68.8281C41.8164 69.0469 41.8047 69.2344 41.7812 69.3906C41.7578 69.5391 41.7227 69.6602 41.6758 69.7539C41.6367 69.8398 41.5898 69.9023 41.5352 69.9414C41.4805 69.9805 41.418 70 41.3477 70H32.9805C32.918 70 32.8594 69.9805 32.8047 69.9414C32.75 69.9023 32.6992 69.8398 32.6523 69.7539C32.6133 69.6602 32.582 69.5391 32.5586 69.3906C32.5352 69.2344 32.5234 69.0469 32.5234 68.8281C32.5234 68.6016 32.5312 68.4141 32.5469 68.2656C32.5703 68.1094 32.6016 67.9844 32.6406 67.8906C32.6875 67.7969 32.7383 67.7305 32.793 67.6914C32.8477 67.6445 32.9102 67.6211 32.9805 67.6211H35.8047V57.7539L33.3672 59.1016C33.1875 59.1875 33.0391 59.2422 32.9219 59.2656C32.8125 59.2812 32.7227 59.2578 32.6523 59.1953C32.5898 59.125 32.5469 59.0078 32.5234 58.8438C32.5 58.6797 32.4883 58.4492 32.4883 58.1523C32.4883 57.9648 32.4922 57.8125 32.5 57.6953C32.5078 57.5703 32.5273 57.4648 32.5586 57.3789C32.5898 57.293 32.6328 57.2227 32.6875 57.168C32.7422 57.1133 32.8164 57.0547 32.9102 56.9922L36.168 54.8828C36.207 54.8516 36.2539 54.8281 36.3086 54.8125C36.3711 54.7891 36.4492 54.7734 36.543 54.7656C36.6367 54.75 36.7578 54.7422 36.9062 54.7422C37.0625 54.7344 37.2617 54.7305 37.5039 54.7305C37.8008 54.7305 38.0391 54.7383 38.2188 54.7539C38.4062 54.7617 38.5469 54.7812 38.6406 54.8125C38.7344 54.8359 38.7969 54.8711 38.8281 54.918C38.8594 54.9648 38.875 55.0234 38.875 55.0938V67.6211H41.3477C41.418 67.6211 41.4805 67.6445 41.5352 67.6914C41.5977 67.7305 41.6484 67.7969 41.6875 67.8906C41.7344 67.9844 41.7656 68.1094 41.7812 68.2656C41.8047 68.4141 41.8164 68.6016 41.8164 68.8281ZM54.4258 62.3594C54.4258 63.5703 54.3281 64.6641 54.1328 65.6406C53.9375 66.6172 53.6172 67.4492 53.1719 68.1367C52.7344 68.8242 52.1602 69.3516 51.4492 69.7188C50.7461 70.0859 49.8828 70.2695 48.8594 70.2695C47.8203 70.2695 46.9609 70.0938 46.2812 69.7422C45.6016 69.3828 45.0625 68.8711 44.6641 68.207C44.2656 67.5352 43.9844 66.7188 43.8203 65.7578C43.6641 64.7891 43.5859 63.6953 43.5859 62.4766C43.5859 61.2734 43.6836 60.1836 43.8789 59.207C44.082 58.2227 44.4023 57.3867 44.8398 56.6992C45.2852 56.0117 45.8594 55.4844 46.5625 55.1172C47.2734 54.75 48.1367 54.5664 49.1523 54.5664C50.1914 54.5664 51.0508 54.7461 51.7305 55.1055C52.418 55.457 52.9609 55.9688 53.3594 56.6406C53.7578 57.3047 54.0352 58.1211 54.1914 59.0898C54.3477 60.0508 54.4258 61.1406 54.4258 62.3594ZM51.3203 62.5117C51.3203 61.793 51.3008 61.1602 51.2617 60.6133C51.2227 60.0586 51.1602 59.5781 51.0742 59.1719C50.9961 58.7656 50.8945 58.4219 50.7695 58.1406C50.6523 57.8594 50.5078 57.6367 50.3359 57.4727C50.1641 57.3008 49.9688 57.1797 49.75 57.1094C49.5312 57.0391 49.2891 57.0039 49.0234 57.0039C48.5625 57.0039 48.1797 57.1172 47.875 57.3438C47.5781 57.5625 47.3398 57.8945 47.1602 58.3398C46.9883 58.7852 46.8672 59.3398 46.7969 60.0039C46.7266 60.668 46.6914 61.4414 46.6914 62.3242C46.6914 63.4023 46.7344 64.2969 46.8203 65.0078C46.9062 65.7109 47.0391 66.2734 47.2188 66.6953C47.4062 67.1094 47.6445 67.4023 47.9336 67.5742C48.2227 67.7383 48.5703 67.8203 48.9766 67.8203C49.2812 67.8203 49.5508 67.7734 49.7852 67.6797C50.0195 67.5781 50.2227 67.4297 50.3945 67.2344C50.5742 67.0391 50.7227 66.793 50.8398 66.4961C50.957 66.1992 51.0508 65.8555 51.1211 65.4648C51.1992 65.0742 51.25 64.6328 51.2734 64.1406C51.3047 63.6484 51.3203 63.1055 51.3203 62.5117ZM66.5898 62.3594C66.5898 63.5703 66.4922 64.6641 66.2969 65.6406C66.1016 66.6172 65.7812 67.4492 65.3359 68.1367C64.8984 68.8242 64.3242 69.3516 63.6133 69.7188C62.9102 70.0859 62.0469 70.2695 61.0234 70.2695C59.9844 70.2695 59.125 70.0938 58.4453 69.7422C57.7656 69.3828 57.2266 68.8711 56.8281 68.207C56.4297 67.5352 56.1484 66.7188 55.9844 65.7578C55.8281 64.7891 55.75 63.6953 55.75 62.4766C55.75 61.2734 55.8477 60.1836 56.043 59.207C56.2461 58.2227 56.5664 57.3867 57.0039 56.6992C57.4492 56.0117 58.0234 55.4844 58.7266 55.1172C59.4375 54.75 60.3008 54.5664 61.3164 54.5664C62.3555 54.5664 63.2148 54.7461 63.8945 55.1055C64.582 55.457 65.125 55.9688 65.5234 56.6406C65.9219 57.3047 66.1992 58.1211 66.3555 59.0898C66.5117 60.0508 66.5898 61.1406 66.5898 62.3594ZM63.4844 62.5117C63.4844 61.793 63.4648 61.1602 63.4258 60.6133C63.3867 60.0586 63.3242 59.5781 63.2383 59.1719C63.1602 58.7656 63.0586 58.4219 62.9336 58.1406C62.8164 57.8594 62.6719 57.6367 62.5 57.4727C62.3281 57.3008 62.1328 57.1797 61.9141 57.1094C61.6953 57.0391 61.4531 57.0039 61.1875 57.0039C60.7266 57.0039 60.3438 57.1172 60.0391 57.3438C59.7422 57.5625 59.5039 57.8945 59.3242 58.3398C59.1523 58.7852 59.0312 59.3398 58.9609 60.0039C58.8906 60.668 58.8555 61.4414 58.8555 62.3242C58.8555 63.4023 58.8984 64.2969 58.9844 65.0078C59.0703 65.7109 59.2031 66.2734 59.3828 66.6953C59.5703 67.1094 59.8086 67.4023 60.0977 67.5742C60.3867 67.7383 60.7344 67.8203 61.1406 67.8203C61.4453 67.8203 61.7148 67.7734 61.9492 67.6797C62.1836 67.5781 62.3867 67.4297 62.5586 67.2344C62.7383 67.0391 62.8867 66.793 63.0039 66.4961C63.1211 66.1992 63.2148 65.8555 63.2852 65.4648C63.3633 65.0742 63.4141 64.6328 63.4375 64.1406C63.4688 63.6484 63.4844 63.1055 63.4844 62.5117Z" fill="#5D6EFF"/>
</g>
<defs>
<filter id="filter0_d_123_334" x="0.488281" y="22.5664" width="98.1016" height="79.7031" filterUnits="userSpaceOnUse" color-interpolation-filters="sRGB">
<feFlood flood-opacity="0" result="BackgroundImageFix"/>
<feColorMatrix in="SourceAlpha" type="matrix" values="0 0 0 0 0 0 0 0 0 0 0 0 0 0 0 0 0 0 127 0" result="hardAlpha"/>
<feOffset/>
<feGaussianBlur stdDeviation="16"/>
<feComposite in2="hardAlpha" operator="out"/>
<feColorMatrix type="matrix" values="0 0 0 0 0 0 0 0 0 0 0 0 0 0 0 0 0 0 0.1 0"/>
<feBlend mode="normal" in2="BackgroundImageFix" result="effect1_dropShadow_123_334"/>
<feBlend mode="normal" in="SourceGraphic" in2="effect1_dropShadow_123_334" result="shape"/>
</filter>
</defs>
</svg>
