<svg width="100" height="103" viewBox="0 0 100 103" fill="none" xmlns="http://www.w3.org/2000/svg">
<circle cx="50" cy="24" r="24" fill="#5E6EFF"/>
<path fill-rule="evenodd" clip-rule="evenodd" d="M49.9998 12C48.4092 12 47.1198 13.2894 47.1198 14.88V21.12H40.88C39.2894 21.12 38 22.4094 38 24C38 25.5906 39.2894 26.88 40.88 26.88H47.1198V33.12C47.1198 34.7106 48.4092 36 49.9998 36C51.5904 36 52.8798 34.7106 52.8798 33.12V26.88H59.12C60.7106 26.88 62 25.5906 62 24C62 22.4094 60.7106 21.12 59.12 21.12H52.8798V14.88C52.8798 13.2894 51.5904 12 49.9998 12Z" fill="#F8F8F8"/>
<g filter="url(#filter0_d_123_334)">
<path d="M42.957 68.7461C42.957 68.9727 42.9453 69.168 42.9219 69.332C42.9062 69.4883 42.8789 69.6172 42.8398 69.7188C42.8008 69.8203 42.75 69.8945 42.6875 69.9414C42.625 69.9805 42.5547 70 42.4766 70H33.7578C33.5859 70 33.4375 69.9844 33.3125 69.9531C33.1875 69.9219 33.0859 69.8633 33.0078 69.7773C32.9297 69.6836 32.8711 69.5508 32.832 69.3789C32.8008 69.207 32.7852 68.9844 32.7852 68.7109C32.7852 68.4531 32.7969 68.2344 32.8203 68.0547C32.8438 67.8672 32.8867 67.7031 32.9492 67.5625C33.0117 67.4141 33.0898 67.2734 33.1836 67.1406C33.2852 67 33.4141 66.8477 33.5703 66.6836L36.1953 63.8711C36.7188 63.3242 37.1406 62.8281 37.4609 62.3828C37.7812 61.9297 38.0312 61.5195 38.2109 61.1523C38.3906 60.7773 38.5117 60.4336 38.5742 60.1211C38.6445 59.8086 38.6797 59.5117 38.6797 59.2305C38.6797 58.9727 38.6367 58.7305 38.5508 58.5039C38.4727 58.2695 38.3516 58.0664 38.1875 57.8945C38.0312 57.7227 37.832 57.5898 37.5898 57.4961C37.3477 57.3945 37.0625 57.3438 36.7344 57.3438C36.2734 57.3438 35.8633 57.4023 35.5039 57.5195C35.1523 57.6367 34.8398 57.7695 34.5664 57.918C34.3008 58.0586 34.0781 58.1914 33.8984 58.3164C33.7188 58.4336 33.5781 58.4922 33.4766 58.4922C33.4062 58.4922 33.3438 58.4688 33.2891 58.4219C33.2422 58.375 33.2031 58.2969 33.1719 58.1875C33.1406 58.0781 33.1133 57.9336 33.0898 57.7539C33.0742 57.5664 33.0664 57.3398 33.0664 57.0742C33.0664 56.8945 33.0703 56.7461 33.0781 56.6289C33.0938 56.5039 33.1133 56.3984 33.1367 56.3125C33.1602 56.2188 33.1914 56.1406 33.2305 56.0781C33.2695 56.0078 33.3359 55.9258 33.4297 55.832C33.5312 55.7383 33.7109 55.6211 33.9688 55.4805C34.2344 55.332 34.5586 55.1914 34.9414 55.0586C35.3242 54.918 35.7461 54.8008 36.207 54.707C36.668 54.6133 37.1484 54.5664 37.6484 54.5664C38.4375 54.5664 39.125 54.668 39.7109 54.8711C40.3047 55.0664 40.7969 55.3438 41.1875 55.7031C41.5781 56.0547 41.8672 56.4766 42.0547 56.9688C42.25 57.4531 42.3477 57.9766 42.3477 58.5391C42.3477 59.0312 42.3008 59.5156 42.207 59.9922C42.1133 60.4688 41.918 60.9844 41.6211 61.5391C41.3242 62.0859 40.9062 62.6953 40.3672 63.3672C39.8281 64.0312 39.1133 64.8047 38.2227 65.6875L36.4531 67.5039H42.4297C42.5078 67.5039 42.5781 67.5273 42.6406 67.5742C42.7109 67.6211 42.7695 67.6953 42.8164 67.7969C42.8633 67.8906 42.8984 68.0195 42.9219 68.1836C42.9453 68.3398 42.957 68.5273 42.957 68.7461ZM55.4258 62.3594C55.4258 63.5703 55.3281 64.6641 55.1328 65.6406C54.9375 66.6172 54.6172 67.4492 54.1719 68.1367C53.7344 68.8242 53.1602 69.3516 52.4492 69.7188C51.7461 70.0859 50.8828 70.2695 49.8594 70.2695C48.8203 70.2695 47.9609 70.0938 47.2812 69.7422C46.6016 69.3828 46.0625 68.8711 45.6641 68.207C45.2656 67.5352 44.9844 66.7188 44.8203 65.7578C44.6641 64.7891 44.5859 63.6953 44.5859 62.4766C44.5859 61.2734 44.6836 60.1836 44.8789 59.207C45.082 58.2227 45.4023 57.3867 45.8398 56.6992C46.2852 56.0117 46.8594 55.4844 47.5625 55.1172C48.2734 54.75 49.1367 54.5664 50.1523 54.5664C51.1914 54.5664 52.0508 54.7461 52.7305 55.1055C53.418 55.457 53.9609 55.9688 54.3594 56.6406C54.7578 57.3047 55.0352 58.1211 55.1914 59.0898C55.3477 60.0508 55.4258 61.1406 55.4258 62.3594ZM52.3203 62.5117C52.3203 61.793 52.3008 61.1602 52.2617 60.6133C52.2227 60.0586 52.1602 59.5781 52.0742 59.1719C51.9961 58.7656 51.8945 58.4219 51.7695 58.1406C51.6523 57.8594 51.5078 57.6367 51.3359 57.4727C51.1641 57.3008 50.9688 57.1797 50.75 57.1094C50.5312 57.0391 50.2891 57.0039 50.0234 57.0039C49.5625 57.0039 49.1797 57.1172 48.875 57.3438C48.5781 57.5625 48.3398 57.8945 48.1602 58.3398C47.9883 58.7852 47.8672 59.3398 47.7969 60.0039C47.7266 60.668 47.6914 61.4414 47.6914 62.3242C47.6914 63.4023 47.7344 64.2969 47.8203 65.0078C47.9062 65.7109 48.0391 66.2734 48.2188 66.6953C48.4062 67.1094 48.6445 67.4023 48.9336 67.5742C49.2227 67.7383 49.5703 67.8203 49.9766 67.8203C50.2812 67.8203 50.5508 67.7734 50.7852 67.6797C51.0195 67.5781 51.2227 67.4297 51.3945 67.2344C51.5742 67.0391 51.7227 66.793 51.8398 66.4961C51.957 66.1992 52.0508 65.8555 52.1211 65.4648C52.1992 65.0742 52.25 64.6328 52.2734 64.1406C52.3047 63.6484 52.3203 63.1055 52.3203 62.5117ZM67.5898 62.3594C67.5898 63.5703 67.4922 64.6641 67.2969 65.6406C67.1016 66.6172 66.7812 67.4492 66.3359 68.1367C65.8984 68.8242 65.3242 69.3516 64.6133 69.7188C63.9102 70.0859 63.0469 70.2695 62.0234 70.2695C60.9844 70.2695 60.125 70.0938 59.4453 69.7422C58.7656 69.3828 58.2266 68.8711 57.8281 68.207C57.4297 67.5352 57.1484 66.7188 56.9844 65.7578C56.8281 64.7891 56.75 63.6953 56.75 62.4766C56.75 61.2734 56.8477 60.1836 57.043 59.207C57.2461 58.2227 57.5664 57.3867 58.0039 56.6992C58.4492 56.0117 59.0234 55.4844 59.7266 55.1172C60.4375 54.75 61.3008 54.5664 62.3164 54.5664C63.3555 54.5664 64.2148 54.7461 64.8945 55.1055C65.582 55.457 66.125 55.9688 66.5234 56.6406C66.9219 57.3047 67.1992 58.1211 67.3555 59.0898C67.5117 60.0508 67.5898 61.1406 67.5898 62.3594ZM64.4844 62.5117C64.4844 61.793 64.4648 61.1602 64.4258 60.6133C64.3867 60.0586 64.3242 59.5781 64.2383 59.1719C64.1602 58.7656 64.0586 58.4219 63.9336 58.1406C63.8164 57.8594 63.6719 57.6367 63.5 57.4727C63.3281 57.3008 63.1328 57.1797 62.9141 57.1094C62.6953 57.0391 62.4531 57.0039 62.1875 57.0039C61.7266 57.0039 61.3438 57.1172 61.0391 57.3438C60.7422 57.5625 60.5039 57.8945 60.3242 58.3398C60.1523 58.7852 60.0312 59.3398 59.9609 60.0039C59.8906 60.668 59.8555 61.4414 59.8555 62.3242C59.8555 63.4023 59.8984 64.2969 59.9844 65.0078C60.0703 65.7109 60.2031 66.2734 60.3828 66.6953C60.5703 67.1094 60.8086 67.4023 61.0977 67.5742C61.3867 67.7383 61.7344 67.8203 62.1406 67.8203C62.4453 67.8203 62.7148 67.7734 62.9492 67.6797C63.1836 67.5781 63.3867 67.4297 63.5586 67.2344C63.7383 67.0391 63.8867 66.793 64.0039 66.4961C64.1211 66.1992 64.2148 65.8555 64.2852 65.4648C64.3633 65.0742 64.4141 64.6328 64.4375 64.1406C64.4688 63.6484 64.4844 63.1055 64.4844 62.5117Z" fill="#5D6EFF"/>
</g>
<defs>
<filter id="filter0_d_123_334" x="0.785156" y="22.5664" width="98.8047" height="79.7031" filterUnits="userSpaceOnUse" color-interpolation-filters="sRGB">
<feFlood flood-opacity="0" result="BackgroundImageFix"/>
<feColorMatrix in="SourceAlpha" type="matrix" values="0 0 0 0 0 0 0 0 0 0 0 0 0 0 0 0 0 0 127 0" result="hardAlpha"/>
<feOffset/>
<feGaussianBlur stdDeviation="16"/>
<feComposite in2="hardAlpha" operator="out"/>
<feColorMatrix type="matrix" values="0 0 0 0 0 0 0 0 0 0 0 0 0 0 0 0 0 0 0.1 0"/>
<feBlend mode="normal" in2="BackgroundImageFix" result="effect1_dropShadow_123_334"/>
<feBlend mode="normal" in="SourceGraphic" in2="effect1_dropShadow_123_334" result="shape"/>
</filter>
</defs>
</svg>
