<svg width="100" height="103" viewBox="0 0 100 103" fill="none" xmlns="http://www.w3.org/2000/svg">
<circle cx="50" cy="24" r="24" fill="#5E6EFF"/>
<path fill-rule="evenodd" clip-rule="evenodd" d="M49.9998 12C48.4092 12 47.1198 13.2894 47.1198 14.88V21.12H40.88C39.2894 21.12 38 22.4094 38 24C38 25.5906 39.2894 26.88 40.88 26.88H47.1198V33.12C47.1198 34.7106 48.4092 36 49.9998 36C51.5904 36 52.8798 34.7106 52.8798 33.12V26.88H59.12C60.7106 26.88 62 25.5906 62 24C62 22.4094 60.7106 21.12 59.12 21.12H52.8798V14.88C52.8798 13.2894 51.5904 12 49.9998 12Z" fill="#F8F8F8"/>
<g filter="url(#filter0_d_123_334)">
<path d="M42.8867 65.5586C42.8867 66.3164 42.7422 66.9883 42.4531 67.5742C42.1641 68.1602 41.7617 68.6523 41.2461 69.0508C40.7305 69.4492 40.1133 69.7539 39.3945 69.9648C38.6758 70.168 37.8906 70.2695 37.0391 70.2695C36.5234 70.2695 36.0391 70.2305 35.5859 70.1523C35.1328 70.082 34.7305 69.9922 34.3789 69.8828C34.0352 69.7734 33.75 69.6602 33.5234 69.543C33.2969 69.4258 33.1484 69.3359 33.0781 69.2734C33.0078 69.2109 32.9531 69.1406 32.9141 69.0625C32.8828 68.9844 32.8516 68.8945 32.8203 68.793C32.7969 68.6836 32.7773 68.5508 32.7617 68.3945C32.7539 68.2305 32.75 68.0352 32.75 67.8086C32.75 67.4336 32.7812 67.1758 32.8438 67.0352C32.9062 66.8867 33 66.8125 33.125 66.8125C33.2031 66.8125 33.3359 66.8672 33.5234 66.9766C33.7188 67.0781 33.9648 67.1914 34.2617 67.3164C34.5586 67.4336 34.9062 67.5469 35.3047 67.6562C35.7031 67.7578 36.1562 67.8086 36.6641 67.8086C37.0938 67.8086 37.4727 67.7578 37.8008 67.6562C38.1289 67.5547 38.4062 67.4141 38.6328 67.2344C38.8672 67.0469 39.0391 66.8242 39.1484 66.5664C39.2656 66.3008 39.3242 66.0078 39.3242 65.6875C39.3242 65.3359 39.2539 65.0195 39.1133 64.7383C38.9805 64.457 38.7773 64.2188 38.5039 64.0234C38.2383 63.8203 37.8984 63.6641 37.4844 63.5547C37.0781 63.4453 36.5977 63.3906 36.043 63.3906H34.7305C34.6289 63.3906 34.543 63.3789 34.4727 63.3555C34.4023 63.3242 34.3438 63.2656 34.2969 63.1797C34.25 63.0938 34.2148 62.9766 34.1914 62.8281C34.1758 62.6719 34.168 62.4727 34.168 62.2305C34.168 62.0039 34.1758 61.8203 34.1914 61.6797C34.2148 61.5312 34.2461 61.418 34.2852 61.3398C34.332 61.2617 34.3867 61.207 34.4492 61.1758C34.5195 61.1445 34.6016 61.1289 34.6953 61.1289H36.0195C36.4727 61.1289 36.875 61.0781 37.2266 60.9766C37.5781 60.8672 37.8711 60.7148 38.1055 60.5195C38.3477 60.3242 38.5312 60.0898 38.6562 59.8164C38.7812 59.5352 38.8438 59.2266 38.8438 58.8906C38.8438 58.6328 38.8008 58.3906 38.7148 58.1641C38.6289 57.9297 38.5 57.7305 38.3281 57.5664C38.1641 57.3945 37.9492 57.2617 37.6836 57.168C37.418 57.0664 37.1055 57.0156 36.7461 57.0156C36.3398 57.0156 35.957 57.0781 35.5977 57.2031C35.2383 57.3203 34.9141 57.4531 34.625 57.6016C34.3438 57.7422 34.1016 57.875 33.8984 58C33.7031 58.125 33.5586 58.1875 33.4648 58.1875C33.4023 58.1875 33.3477 58.1758 33.3008 58.1523C33.2539 58.1211 33.2148 58.0664 33.1836 57.9883C33.1523 57.9102 33.1289 57.7969 33.1133 57.6484C33.0977 57.5 33.0898 57.3086 33.0898 57.0742C33.0898 56.8789 33.0938 56.7188 33.1016 56.5938C33.1094 56.4609 33.125 56.3516 33.1484 56.2656C33.1719 56.1797 33.1992 56.1055 33.2305 56.043C33.2695 55.9805 33.3281 55.9141 33.4062 55.8438C33.4844 55.7656 33.6445 55.6523 33.8867 55.5039C34.1289 55.3555 34.4336 55.2109 34.8008 55.0703C35.168 54.9297 35.5898 54.8125 36.0664 54.7188C36.5508 54.6172 37.0742 54.5664 37.6367 54.5664C38.3711 54.5664 39.0195 54.6523 39.582 54.8242C40.1523 54.9961 40.6289 55.2461 41.0117 55.5742C41.4023 55.8945 41.6953 56.293 41.8906 56.7695C42.0938 57.2383 42.1953 57.7695 42.1953 58.3633C42.1953 58.8242 42.1367 59.2539 42.0195 59.6523C41.9023 60.0508 41.7305 60.4062 41.5039 60.7188C41.2773 61.0312 40.9922 61.2969 40.6484 61.5156C40.3125 61.7344 39.9219 61.8984 39.4766 62.0078V62.043C40.0078 62.1055 40.4844 62.2422 40.9062 62.4531C41.3281 62.6562 41.6836 62.9141 41.9727 63.2266C42.2695 63.5391 42.4961 63.8945 42.6523 64.293C42.8086 64.6836 42.8867 65.1055 42.8867 65.5586ZM55.4258 62.3594C55.4258 63.5703 55.3281 64.6641 55.1328 65.6406C54.9375 66.6172 54.6172 67.4492 54.1719 68.1367C53.7344 68.8242 53.1602 69.3516 52.4492 69.7188C51.7461 70.0859 50.8828 70.2695 49.8594 70.2695C48.8203 70.2695 47.9609 70.0938 47.2812 69.7422C46.6016 69.3828 46.0625 68.8711 45.6641 68.207C45.2656 67.5352 44.9844 66.7188 44.8203 65.7578C44.6641 64.7891 44.5859 63.6953 44.5859 62.4766C44.5859 61.2734 44.6836 60.1836 44.8789 59.207C45.082 58.2227 45.4023 57.3867 45.8398 56.6992C46.2852 56.0117 46.8594 55.4844 47.5625 55.1172C48.2734 54.75 49.1367 54.5664 50.1523 54.5664C51.1914 54.5664 52.0508 54.7461 52.7305 55.1055C53.418 55.457 53.9609 55.9688 54.3594 56.6406C54.7578 57.3047 55.0352 58.1211 55.1914 59.0898C55.3477 60.0508 55.4258 61.1406 55.4258 62.3594ZM52.3203 62.5117C52.3203 61.793 52.3008 61.1602 52.2617 60.6133C52.2227 60.0586 52.1602 59.5781 52.0742 59.1719C51.9961 58.7656 51.8945 58.4219 51.7695 58.1406C51.6523 57.8594 51.5078 57.6367 51.3359 57.4727C51.1641 57.3008 50.9688 57.1797 50.75 57.1094C50.5312 57.0391 50.2891 57.0039 50.0234 57.0039C49.5625 57.0039 49.1797 57.1172 48.875 57.3438C48.5781 57.5625 48.3398 57.8945 48.1602 58.3398C47.9883 58.7852 47.8672 59.3398 47.7969 60.0039C47.7266 60.668 47.6914 61.4414 47.6914 62.3242C47.6914 63.4023 47.7344 64.2969 47.8203 65.0078C47.9062 65.7109 48.0391 66.2734 48.2188 66.6953C48.4062 67.1094 48.6445 67.4023 48.9336 67.5742C49.2227 67.7383 49.5703 67.8203 49.9766 67.8203C50.2812 67.8203 50.5508 67.7734 50.7852 67.6797C51.0195 67.5781 51.2227 67.4297 51.3945 67.2344C51.5742 67.0391 51.7227 66.793 51.8398 66.4961C51.957 66.1992 52.0508 65.8555 52.1211 65.4648C52.1992 65.0742 52.25 64.6328 52.2734 64.1406C52.3047 63.6484 52.3203 63.1055 52.3203 62.5117ZM67.5898 62.3594C67.5898 63.5703 67.4922 64.6641 67.2969 65.6406C67.1016 66.6172 66.7812 67.4492 66.3359 68.1367C65.8984 68.8242 65.3242 69.3516 64.6133 69.7188C63.9102 70.0859 63.0469 70.2695 62.0234 70.2695C60.9844 70.2695 60.125 70.0938 59.4453 69.7422C58.7656 69.3828 58.2266 68.8711 57.8281 68.207C57.4297 67.5352 57.1484 66.7188 56.9844 65.7578C56.8281 64.7891 56.75 63.6953 56.75 62.4766C56.75 61.2734 56.8477 60.1836 57.043 59.207C57.2461 58.2227 57.5664 57.3867 58.0039 56.6992C58.4492 56.0117 59.0234 55.4844 59.7266 55.1172C60.4375 54.75 61.3008 54.5664 62.3164 54.5664C63.3555 54.5664 64.2148 54.7461 64.8945 55.1055C65.582 55.457 66.125 55.9688 66.5234 56.6406C66.9219 57.3047 67.1992 58.1211 67.3555 59.0898C67.5117 60.0508 67.5898 61.1406 67.5898 62.3594ZM64.4844 62.5117C64.4844 61.793 64.4648 61.1602 64.4258 60.6133C64.3867 60.0586 64.3242 59.5781 64.2383 59.1719C64.1602 58.7656 64.0586 58.4219 63.9336 58.1406C63.8164 57.8594 63.6719 57.6367 63.5 57.4727C63.3281 57.3008 63.1328 57.1797 62.9141 57.1094C62.6953 57.0391 62.4531 57.0039 62.1875 57.0039C61.7266 57.0039 61.3438 57.1172 61.0391 57.3438C60.7422 57.5625 60.5039 57.8945 60.3242 58.3398C60.1523 58.7852 60.0312 59.3398 59.9609 60.0039C59.8906 60.668 59.8555 61.4414 59.8555 62.3242C59.8555 63.4023 59.8984 64.2969 59.9844 65.0078C60.0703 65.7109 60.2031 66.2734 60.3828 66.6953C60.5703 67.1094 60.8086 67.4023 61.0977 67.5742C61.3867 67.7383 61.7344 67.8203 62.1406 67.8203C62.4453 67.8203 62.7148 67.7734 62.9492 67.6797C63.1836 67.5781 63.3867 67.4297 63.5586 67.2344C63.7383 67.0391 63.8867 66.793 64.0039 66.4961C64.1211 66.1992 64.2148 65.8555 64.2852 65.4648C64.3633 65.0742 64.4141 64.6328 64.4375 64.1406C64.4688 63.6484 64.4844 63.1055 64.4844 62.5117Z" fill="#5D6EFF"/>
</g>
<defs>
<filter id="filter0_d_123_334" x="0.75" y="22.5664" width="98.8398" height="79.7031" filterUnits="userSpaceOnUse" color-interpolation-filters="sRGB">
<feFlood flood-opacity="0" result="BackgroundImageFix"/>
<feColorMatrix in="SourceAlpha" type="matrix" values="0 0 0 0 0 0 0 0 0 0 0 0 0 0 0 0 0 0 127 0" result="hardAlpha"/>
<feOffset/>
<feGaussianBlur stdDeviation="16"/>
<feComposite in2="hardAlpha" operator="out"/>
<feColorMatrix type="matrix" values="0 0 0 0 0 0 0 0 0 0 0 0 0 0 0 0 0 0 0.1 0"/>
<feBlend mode="normal" in2="BackgroundImageFix" result="effect1_dropShadow_123_334"/>
<feBlend mode="normal" in="SourceGraphic" in2="effect1_dropShadow_123_334" result="shape"/>
</filter>
</defs>
</svg>
