<svg width="40" height="40" viewBox="0 0 40 40" fill="none" xmlns="http://www.w3.org/2000/svg">
<path d="M12.7269 0L11.2845 1.40633C10.8179 1.86131 0 12.5328 0 21.5912C0 28.4161 5.72712 34 12.7269 34C19.7267 34 25.4539 28.4161 25.4539 21.5912C25.4539 12.5742 14.636 1.86131 14.1693 1.40633L12.7269 0ZM6.36347 19.5231C7.55131 19.5231 8.48462 20.4331 8.48462 21.5912C8.48462 23.8662 10.3937 25.7275 12.7269 25.7275C13.9148 25.7275 14.8481 26.6375 14.8481 27.7956C14.8481 28.9538 13.9148 29.8637 12.7269 29.8637C8.06039 29.8637 4.24231 26.1411 4.24231 21.5912C4.24231 20.4331 5.17562 19.5231 6.36347 19.5231Z" fill="#5D6EFF"/>
<ellipse cx="26.1538" cy="26.5" rx="13.8462" ry="13.5" fill="#EBEBFF"/>
<ellipse cx="26.154" cy="26.5" rx="10.7692" ry="10.5" fill="#5E6EFF"/>
<path fill-rule="evenodd" clip-rule="evenodd" d="M26.1539 21.25C25.4402 21.25 24.8616 21.8286 24.8616 22.5423V25.24L22.029 25.24C21.3332 25.24 20.769 25.8041 20.769 26.5C20.769 27.1959 21.3332 27.76 22.029 27.76H24.8616V30.4577C24.8616 31.1714 25.4402 31.75 26.1539 31.75C26.8676 31.75 27.4462 31.1714 27.4462 30.4577V27.76H30.2783C30.9742 27.76 31.5383 27.1959 31.5383 26.5C31.5383 25.8041 30.9742 25.24 30.2783 25.24L27.4462 25.24V22.5423C27.4462 21.8286 26.8676 21.25 26.1539 21.25Z" fill="#F8F8F8"/>
</svg>
