<svg width="24" height="24" viewBox="0 0 24 24" fill="none" xmlns="http://www.w3.org/2000/svg">
<path d="M10.7143 2C9.3 2 8.14286 3.15714 8.14286 4.57143H5.57143C4.15714 4.57143 3 5.72857 3 7.14286H21C21 5.72857 19.8429 4.57143 18.4286 4.57143H15.8571C15.8571 3.15714 14.7 2 13.2857 2H10.7143ZM5.57143 9.71429V22.0829C5.57143 22.3657 5.77714 22.5714 6.06 22.5714H17.9657C18.2486 22.5714 18.4543 22.3657 18.4543 22.0829V9.71429H15.8829V18.7143C15.8829 19.4343 15.3171 20 14.5971 20C13.8771 20 13.3114 19.4343 13.3114 18.7143V9.71429H10.74V18.7143C10.74 19.4343 10.1743 20 9.45429 20C8.73429 20 8.16857 19.4343 8.16857 18.7143V9.71429H5.59714H5.57143Z" fill="black"/>
</svg>
