<svg width="140" height="140" viewBox="0 0 140 140" fill="none" xmlns="http://www.w3.org/2000/svg">
<rect width="140" height="140" rx="32" fill="#5D6EFF"/>
<path d="M73.4263 32.7558C71.5729 30.9025 68.568 30.9025 66.7147 32.7558V32.7558C65.629 33.8415 40.4604 59.3061 40.4604 80.9214C40.4604 97.2069 53.785 110.531 70.0705 110.531C86.356 110.531 99.6805 97.2069 99.6805 80.9214C99.6805 59.4048 74.512 33.8415 73.4263 32.7558V32.7558ZM55.2655 75.9864C58.0291 75.9864 60.2005 78.1578 60.2005 80.9214C60.2005 86.3499 64.642 90.7914 70.0705 90.7914C72.8341 90.7914 75.0055 92.9628 75.0055 95.7264C75.0055 98.49 72.8341 100.661 70.0705 100.661C59.2135 100.661 50.3305 91.7784 50.3305 80.9214C50.3305 78.1578 52.5019 75.9864 55.2655 75.9864Z" fill="white"/>
</svg>
