<svg width="24" height="24" viewBox="0 0 24 24" fill="none" xmlns="http://www.w3.org/2000/svg">
<path d="M10.7531 2L9.50623 4.96758C9.25686 5.04239 9.03242 5.16708 8.80798 5.29177L5.8404 4.04489L4.04489 5.8404L5.29177 8.80798C5.16708 9.05736 5.06733 9.25686 4.96758 9.50623L2 10.7531V13.2469L4.96758 14.4938C5.06733 14.7431 5.16708 14.9426 5.29177 15.192L4.04489 18.1596L5.8404 19.9551L8.80798 18.7082C9.03242 18.808 9.25686 18.9327 9.50623 19.0324L10.7531 22H13.2469L14.4938 19.0324C14.7182 18.9327 14.9676 18.8329 15.192 18.7082L18.1596 19.9551L19.9551 18.1596L18.7082 15.192C18.808 14.9676 18.9327 14.7182 19.0324 14.4938L22 13.2469V10.7531L19.0324 9.50623C18.9576 9.28179 18.8329 9.03242 18.7082 8.80798L19.9551 5.8404L18.1596 4.04489L15.192 5.29177C14.9676 5.19202 14.7182 5.06733 14.4938 4.96758L13.2469 2L10.7531 2ZM12 8.23441C14.0698 8.23441 15.7406 9.90524 15.7406 11.9751C15.7406 14.0449 14.0698 15.7157 12 15.7157C9.93017 15.7157 8.25935 14.0449 8.25935 11.9751C8.25935 9.90524 9.93017 8.23441 12 8.23441Z" fill="black"/>
</svg>
